<?xml version="1.0" standalone="no"?>
<!DOCTYPE svg PUBLIC "-//W3C//DTD SVG 20010904//EN"
 "http://www.w3.org/TR/2001/REC-SVG-20010904/DTD/svg10.dtd">
<svg version="1.0" xmlns="http://www.w3.org/2000/svg"
 width="763.000000pt" height="1000.000000pt" viewBox="0 0 763.000000 1000.000000"
 preserveAspectRatio="xMidYMid meet">

<g transform="translate(0.000000,1000.000000) scale(0.100000,-0.100000)"
fill="#000000" stroke="none">
<path d="M4662 9233 c-13 -3 -27 -16 -33 -31 -6 -15 -13 -131 -16 -257 -5
-198 -4 -232 9 -243 22 -17 185 -31 375 -32 161 0 163 0 168 23 11 49 25 258
25 368 0 128 3 122 -70 140 -42 11 -350 39 -400 38 -19 -1 -45 -4 -58 -6z
m348 -33 c127 -15 157 -26 164 -56 12 -45 -19 -444 -34 -454 -12 -7 -428 6
-474 15 l-39 8 5 244 c4 195 8 247 19 255 16 10 224 3 359 -12z"/>
<path d="M5324 8834 c-8 -45 2 -182 27 -356 22 -154 53 -266 75 -275 54 -20
581 335 572 385 -5 30 -276 158 -521 247 -127 46 -144 46 -153 -1z m211 -39
c225 -88 445 -192 445 -210 -1 -30 -340 -272 -469 -335 -70 -33 -73 -34 -86
-16 -17 22 -41 124 -60 255 -17 111 -31 332 -22 354 7 20 38 12 192 -48z"/>
<path d="M6360 8223 c-66 -12 -122 -37 -159 -73 -48 -47 -69 -86 -77 -142 -8
-59 16 -88 77 -95 59 -7 103 16 127 64 24 50 42 60 82 43 35 -14 50 -43 50
-94 0 -45 -56 -128 -168 -251 -99 -108 -133 -165 -135 -221 -1 -46 18 -61 89
-70 81 -10 444 1 477 14 30 13 57 63 57 105 0 14 -10 37 -22 52 -21 27 -23 28
-102 21 -45 -4 -107 -10 -139 -15 -96 -12 -96 -12 38 150 166 199 191 260 145
354 -32 67 -84 113 -157 139 -44 15 -146 26 -183 19z m181 -38 c100 -34 165
-120 157 -206 -7 -72 -55 -145 -210 -318 -68 -77 -79 -120 -32 -123 10 -1 64
4 119 11 134 17 167 14 179 -21 12 -34 -7 -103 -31 -112 -42 -17 -293 -27
-408 -17 -149 13 -157 19 -131 95 15 43 43 82 133 183 130 146 168 212 160
274 -13 99 -115 131 -157 49 -29 -57 -46 -70 -93 -70 -81 0 -106 45 -72 128
28 65 98 123 173 142 49 12 156 5 213 -15z"/>
<path d="M4739 7992 c-79 -51 -122 -119 -103 -163 14 -30 348 -381 446 -468
77 -69 95 -80 165 -101 43 -13 101 -24 128 -24 44 -1 50 2 53 21 2 12 -14 61
-35 109 -41 94 -106 174 -421 511 -150 161 -156 163 -233 115z m84 -9 c-3 -7
-6 -13 -8 -13 -2 0 -5 6 -8 13 -3 8 1 14 8 14 7 0 11 -6 8 -14z m68 -50 c7
-10 9 -15 5 -11 -5 4 -15 3 -23 -4 -10 -8 -17 -8 -24 -1 -8 8 -6 11 7 10 11
-1 18 4 17 11 -4 17 2 15 18 -5z m126 -129 c-6 -6 -47 9 -47 17 0 5 11 3 25
-3 14 -6 24 -13 22 -14z m-138 3 c-2 -1 -15 -11 -29 -22 l-25 -20 19 23 c11
12 24 22 29 22 6 0 8 -1 6 -3z m184 -84 c80 -83 127 -141 127 -159 0 -48 -73
-11 -156 80 -78 84 -92 109 -74 131 21 25 35 18 103 -52z m-113 -28 c0 -5 -5
-3 -10 5 -5 8 -10 20 -10 25 0 6 5 3 10 -5 5 -8 10 -19 10 -25z m55 -55 c10
-11 16 -20 13 -20 -3 0 -13 9 -23 20 -10 11 -16 20 -13 20 3 0 13 -9 23 -20z
m-85 -80 c0 -5 -2 -10 -4 -10 -3 0 -8 5 -11 10 -3 6 -1 10 4 10 6 0 11 -4 11
-10z m203 -39 c-2 -3 -16 8 -31 24 l-27 28 31 -24 c17 -13 30 -26 27 -28z
m138 12 c13 -16 12 -17 -3 -4 -10 7 -18 15 -18 17 0 8 8 3 21 -13z m-286 -15
c5 4 5 1 1 -6 -6 -10 -11 -10 -22 -1 -8 6 -14 14 -14 16 0 3 6 0 13 -6 8 -6
18 -7 22 -3z m44 -1 c-2 -1 -13 -9 -24 -17 -19 -14 -19 -14 -6 3 7 9 18 17 24
17 6 0 8 -1 6 -3z m32 -94 c13 -16 12 -17 -3 -4 -10 7 -18 15 -18 17 0 8 8 3
21 -13z m287 -8 c-3 -3 -9 2 -12 12 -6 14 -5 15 5 6 7 -7 10 -15 7 -18z m-238
-40 c13 -14 21 -25 18 -25 -2 0 -15 11 -28 25 -13 14 -21 25 -18 25 2 0 15
-11 28 -25z m310 -110 c0 -8 -4 -15 -10 -15 -5 0 -7 7 -4 15 4 8 8 15 10 15 2
0 4 -7 4 -15z m-73 -1 c-3 -3 -12 -4 -19 -1 -8 3 -5 6 6 6 11 1 17 -2 13 -5z"/>
<path d="M6119 7131 c-37 -38 -106 -121 -154 -183 -48 -62 -90 -114 -94 -116
-4 -1 -27 52 -51 118 l-43 120 -89 0 c-272 0 -483 -121 -585 -337 l-34 -71
-57 25 c-235 104 -473 54 -698 -145 l-48 -43 16 -42 c126 -331 185 -520 219
-696 11 -58 22 -116 25 -129 4 -19 7 -21 25 -11 11 6 22 9 24 7 3 -2 -2 -28
-10 -58 -38 -139 -67 -313 -72 -430 -6 -140 4 -198 42 -236 46 -46 168 -22
209 42 10 14 27 72 38 128 11 55 27 109 37 120 35 41 123 59 174 35 17 -8 29
-29 45 -77 37 -114 101 -172 192 -172 91 0 144 45 143 119 -1 59 -12 94 -75
241 -28 63 -76 192 -108 287 -49 144 -56 172 -43 177 19 8 173 -11 209 -24 40
-16 52 -12 68 18 25 48 153 179 218 222 33 22 63 40 67 40 4 0 -1 -46 -11
-102 -9 -57 -20 -146 -24 -198 -7 -94 -6 -95 21 -123 41 -40 122 -61 215 -54
142 10 250 73 296 171 38 82 28 154 -31 233 l-25 32 42 11 c113 29 178 72 213
140 53 104 2 268 -110 352 -54 41 -155 82 -228 93 -26 4 -47 10 -47 13 0 2 28
37 63 76 92 104 217 254 260 310 27 35 36 55 31 70 -15 51 -106 116 -161 116
-21 0 -43 -16 -94 -69z m75 -80 c50 -34 79 -86 64 -115 -11 -20 -11 -20 -22
-2 -26 44 -68 84 -108 101 -55 24 -53 22 -38 40 16 19 52 11 104 -24z m-431
-142 l57 -151 -40 -57 c-41 -59 -66 -135 -77 -233 -7 -66 -5 -67 61 -38 25 10
46 18 46 17 -1 -1 -15 -57 -33 -124 l-33 -122 -49 -26 c-125 -67 -219 -143
-281 -228 -42 -57 -44 -58 -54 -35 -5 12 -70 185 -144 382 l-134 359 23 53
c96 216 300 345 561 353 l40 1 57 -151z m20 88 c9 -30 17 -63 17 -75 0 -12 5
-22 11 -22 6 0 8 -7 5 -16 -3 -8 -2 -12 4 -9 13 8 32 -67 20 -79 -6 -6 -11 -4
-14 5 -3 8 -23 63 -46 122 -37 99 -42 127 -21 127 4 0 15 -24 24 -53z m347 15
c39 -23 71 -54 86 -85 15 -28 15 -28 -131 -197 -80 -93 -149 -171 -153 -174
-4 -2 -21 -1 -39 1 -23 4 -33 11 -35 27 -2 14 -11 22 -28 24 -14 2 -33 14 -43
27 -17 24 -17 25 34 97 29 40 93 126 143 190 98 127 102 129 166 90z m-1210
-309 c73 -20 146 -58 155 -80 28 -72 275 -733 275 -736 0 -2 -28 2 -62 9 -35
8 -95 14 -133 14 l-70 0 -20 37 c-26 50 -82 111 -116 129 -37 19 -95 18 -127
-2 -44 -26 -99 -103 -151 -209 -36 -73 -56 -104 -76 -113 -35 -16 -35 -16 -35
16 0 83 -86 384 -177 622 l-56 144 39 34 c156 136 367 187 554 135z m858 -106
c3 -26 5 -26 24 -12 26 17 48 4 41 -25 -4 -16 1 -19 34 -22 l38 -3 -72 -43
c-70 -41 -73 -42 -98 -26 -17 11 -23 23 -20 38 19 97 29 126 39 123 6 -2 12
-16 14 -30z m372 -19 c64 -20 155 -79 190 -124 94 -118 91 -262 -6 -343 -39
-31 -144 -71 -190 -71 -31 0 -30 -12 5 -52 43 -50 61 -92 61 -143 0 -133 -125
-232 -305 -242 -90 -6 -149 7 -190 39 l-28 22 6 100 c7 118 44 325 92 516 45
179 46 183 98 213 25 15 62 46 82 70 l37 44 57 -9 c31 -5 72 -14 91 -20z
m-1800 -157 c33 -84 36 -95 18 -86 -7 4 -5 0 4 -7 18 -16 60 -120 62 -155 0
-13 4 -23 7 -23 11 0 31 -88 24 -101 -5 -7 -4 -10 2 -6 7 4 17 -23 28 -71 10
-42 24 -102 31 -133 8 -31 14 -72 14 -91 0 -41 8 -52 27 -36 10 8 17 8 25 0 9
-9 7 -19 -8 -39 -27 -36 -46 -42 -43 -12 1 13 -1 31 -4 39 -8 22 -40 181 -41
207 -1 11 -4 19 -7 17 -4 -2 -10 12 -13 32 -4 19 -28 97 -53 172 -25 75 -45
145 -45 155 0 9 -3 15 -9 12 -5 -4 -9 -1 -9 5 0 6 -16 51 -35 100 -41 104 -39
97 -20 97 8 0 26 -30 45 -76z m1380 -272 c0 -5 -4 -8 -9 -5 -4 3 -6 -5 -4 -18
6 -28 -23 -61 -41 -47 -8 6 -17 6 -26 -1 -12 -8 -12 -9 3 -4 9 3 17 1 17 -4 0
-16 -48 -42 -61 -34 -9 5 -10 2 -6 -9 3 -10 2 -17 -3 -17 -6 0 -19 -9 -30 -20
-11 -11 -22 -15 -25 -10 -4 6 -2 10 4 10 6 0 8 7 4 16 -5 13 -1 15 18 10 13
-3 18 -3 11 0 -10 5 -10 9 0 21 18 22 19 43 1 36 -10 -4 -11 -8 -3 -13 12 -7
-38 -47 -53 -42 -5 1 -6 -2 -3 -7 4 -5 2 -12 -4 -16 -5 -3 -10 -1 -10 6 0 7
-3 9 -7 5 -5 -4 -7 -11 -6 -14 1 -4 -3 -13 -9 -19 -15 -18 0 -16 19 3 11 10
19 12 26 5 13 -13 -11 -44 -28 -37 -7 2 -12 -3 -11 -12 0 -10 -5 -16 -14 -14
-8 2 -12 0 -8 -4 9 -8 -29 -64 -43 -64 -6 0 -8 10 -5 23 3 12 3 16 0 9 -3 -6
-10 -10 -15 -7 -5 4 -6 -2 -2 -12 4 -13 3 -15 -6 -7 -12 11 -5 44 10 44 5 0 9
6 9 13 0 12 110 136 110 124 0 -4 16 9 36 28 20 19 39 35 42 36 37 6 72 5 72
-2 0 -5 5 -9 12 -9 6 0 3 9 -7 20 -14 15 -20 17 -26 8 -4 -7 -11 -9 -16 -5 -8
9 17 28 28 21 4 -2 12 3 19 11 14 17 40 20 40 4z m-880 -88 c0 -5 -7 -12 -16
-15 -14 -5 -15 -4 -4 9 14 17 20 19 20 6z m127 -37 c-3 -3 -12 -4 -19 -1 -8 3
-5 6 6 6 11 1 17 -2 13 -5z m-190 -26 c-3 -8 -6 -5 -6 6 -1 11 2 17 5 13 3 -3
4 -12 1 -19z m233 -20 c15 -21 17 -28 6 -19 -16 13 -41 51 -33 51 2 0 14 -15
27 -32z m-262 -18 c-7 -10 -14 -17 -17 -15 -4 4 18 35 25 35 2 0 -1 -9 -8 -20z
m437 -79 c-12 -5 5 -8 45 -7 36 1 74 -3 85 -8 11 -5 29 -10 40 -12 64 -9 65
-11 41 -46 -11 -16 -17 -16 -67 -3 -30 8 -75 15 -101 15 -32 0 -48 4 -48 13 0
8 -4 7 -10 -3 -7 -11 -10 -11 -10 -2 0 10 -5 10 -21 2 -11 -7 -22 -10 -23 -8
-1 2 -7 18 -13 36 l-11 32 56 -1 c38 0 50 -3 37 -8z m-124 -28 c-12 -20 -14
-14 -5 12 4 9 9 14 11 11 3 -2 0 -13 -6 -23z m-150 -212 c12 -31 24 -79 27
-108 4 -46 2 -53 -21 -68 -16 -10 -41 -15 -69 -13 -39 3 -43 6 -46 32 -4 33
23 165 45 216 14 33 15 34 29 16 8 -11 24 -45 35 -75z m-291 -6 c0 -5 -5 -3
-10 5 -5 8 -10 20 -10 25 0 6 5 3 10 -5 5 -8 10 -19 10 -25z m-42 -130 c-3 -3
-9 2 -12 12 -6 14 -5 15 5 6 7 -7 10 -15 7 -18z m367 -55 c-3 -5 -12 -10 -18
-10 -7 0 -6 4 3 10 19 12 23 12 15 0z m-398 -32 c-3 -8 -6 -5 -6 6 -1 11 2 17
5 13 3 -3 4 -12 1 -19z m-10 -50 c-3 -8 -6 -5 -6 6 -1 11 2 17 5 13 3 -3 4
-12 1 -19z m-10 -50 c-3 -8 -6 -5 -6 6 -1 11 2 17 5 13 3 -3 4 -12 1 -19z
m450 -54 c-3 -3 -12 -4 -19 -1 -8 3 -5 6 6 6 11 1 17 -2 13 -5z m177 -253 c-2
-3 -12 3 -22 13 -16 17 -16 18 5 5 12 -7 20 -15 17 -18z m140 20 c3 -5 -1 -11
-9 -15 -8 -3 -17 0 -21 6 -4 7 -3 8 4 4 7 -4 12 -2 12 3 0 13 7 14 14 2z m-47
-27 c-3 -3 -12 -4 -19 -1 -8 3 -5 6 6 6 11 1 17 -2 13 -5z m-547 -69 c-7 -9
-15 -13 -19 -10 -3 3 1 10 9 15 21 14 24 12 10 -5z"/>
<path d="M6203 7015 c0 -8 4 -12 9 -9 5 3 6 10 3 15 -9 13 -12 11 -12 -6z"/>
<path d="M5770 6975 c0 -5 5 -17 10 -25 5 -8 10 -10 10 -5 0 6 -5 17 -10 25
-5 8 -10 11 -10 5z"/>
<path d="M6095 6916 c-80 -86 -117 -186 -69 -186 38 0 145 140 147 192 3 51
-27 49 -78 -6z m65 6 c0 -22 -43 -89 -89 -137 -83 -89 -57 10 29 108 45 50 60
58 60 29z"/>
<path d="M6058 6417 c-22 -23 -60 -149 -56 -188 2 -28 8 -35 28 -37 64 -7 150
73 150 140 0 57 -89 118 -122 85z m71 -33 c21 -17 31 -35 31 -52 0 -27 -15
-60 -23 -52 -14 15 -67 109 -67 119 0 19 27 12 59 -15z m-31 -82 c18 -25 20
-36 12 -52 -9 -17 -14 -18 -30 -7 -11 6 -20 15 -20 20 0 4 -5 5 -11 1 -8 -4
-4 -11 11 -19 l23 -12 -28 -7 c-33 -8 -36 -6 -29 22 8 27 40 38 62 20 10 -8 6
4 -11 34 -42 73 -31 73 21 0z m-48 8 c0 -5 -4 -10 -10 -10 -5 0 -10 5 -10 10
0 6 5 10 10 10 6 0 10 -4 10 -10z"/>
<path d="M5875 5907 c-18 -45 -19 -97 -2 -121 30 -41 147 26 147 84 0 36 -32
59 -90 67 -38 5 -41 4 -55 -30z m111 -11 c28 -23 28 -24 11 -50 -21 -31 -78
-61 -101 -53 -18 7 -22 61 -6 101 13 34 58 35 96 2z"/>
<path d="M4566 5694 c-5 -14 -4 -15 9 -4 17 14 19 20 6 20 -5 0 -12 -7 -15
-16z"/>
<path d="M5450 5929 c0 -5 5 -7 10 -4 6 3 10 8 10 11 0 2 -4 4 -10 4 -5 0 -10
-5 -10 -11z"/>
<path d="M5430 5911 c0 -5 7 -11 15 -15 8 -3 15 -1 15 3 0 5 -7 11 -15 15 -8
3 -15 1 -15 -3z"/>
<path d="M5238 5863 c6 -2 18 -2 25 0 6 3 1 5 -13 5 -14 0 -19 -2 -12 -5z"/>
<path d="M5138 5853 c6 -2 18 -2 25 0 6 3 1 5 -13 5 -14 0 -19 -2 -12 -5z"/>
<path d="M5322 5847 c14 -15 50 -19 42 -5 -3 5 -9 6 -14 3 -5 -3 -11 -1 -15 5
-3 5 -11 10 -16 10 -6 0 -4 -6 3 -13z"/>
<path d="M5245 5840 c-15 -6 -10 -7 18 -7 20 1 37 4 37 7 0 9 -32 9 -55 0z"/>
<path d="M5388 5823 c7 -3 16 -2 19 1 4 3 -2 6 -13 5 -11 0 -14 -3 -6 -6z"/>
<path d="M6615 6981 c-151 -70 -181 -261 -57 -373 161 -145 413 8 362 220 -31
130 -186 208 -305 153z m207 -38 c117 -85 117 -254 -1 -338 -56 -39 -148 -47
-207 -17 -75 39 -114 102 -114 187 0 67 26 123 73 159 50 38 76 46 144 43 51
-2 70 -8 105 -34z"/>
<path d="M3005 6408 c-3 -13 1 -43 10 -67 8 -24 15 -45 15 -47 0 -3 -26 9 -58
25 -117 59 -193 76 -342 75 -252 0 -427 -66 -800 -298 -98 -60 -135 -67 -178
-31 -37 31 -64 23 -79 -22 -9 -27 2 -112 21 -154 5 -12 -6 -26 -43 -53 -118
-87 -211 -219 -211 -302 0 -51 30 -94 67 -94 20 0 24 -4 18 -17 -20 -51 -45
-209 -45 -288 0 -155 42 -291 124 -404 22 -31 40 -74 54 -132 44 -179 127
-332 251 -460 l66 -69 -65 -47 c-63 -47 -66 -48 -140 -48 -53 0 -85 -6 -110
-19 -45 -23 -255 -238 -329 -336 -109 -144 -191 -341 -191 -454 1 -67 32 -123
82 -146 57 -26 151 -26 225 0 32 11 60 20 64 20 3 0 9 -18 13 -40 13 -79 57
-170 113 -230 l54 -59 -22 -53 c-53 -123 -90 -159 -190 -183 -73 -17 -89 -33
-89 -91 0 -26 -7 -51 -20 -67 -11 -14 -20 -37 -20 -51 l0 -26 -125 0 c-171 0
-220 -22 -270 -120 -27 -54 -61 -190 -70 -280 -4 -39 -23 -107 -47 -170 -60
-155 -132 -372 -159 -480 -13 -52 -24 -96 -24 -97 -1 -2 -33 4 -71 12 -94 20
-248 19 -307 -1 -57 -19 -113 -80 -128 -138 -5 -23 -19 -57 -29 -77 -26 -49
-25 -84 4 -134 54 -91 248 -212 497 -309 133 -52 220 -72 271 -62 39 7 144 88
174 134 22 34 44 117 44 168 0 35 91 309 121 367 7 12 22 17 58 17 42 0 56 6
99 41 66 52 93 59 232 59 159 0 367 17 426 35 27 8 52 15 56 15 4 0 10 -21 13
-47 27 -189 73 -308 185 -478 108 -162 121 -187 118 -222 -1 -16 2 -38 6 -50
9 -27 63 -53 114 -53 34 0 44 -5 67 -36 35 -45 110 -81 190 -89 129 -14 344
32 477 102 29 15 56 29 59 31 3 1 14 -19 24 -45 35 -92 108 -228 144 -266 66
-70 139 -84 226 -43 100 47 135 111 143 257 7 152 -41 394 -104 523 -68 139
-177 185 -319 135 -56 -20 -60 -20 -97 -3 -21 9 -38 22 -38 27 0 6 -27 38 -60
73 -46 48 -60 69 -60 93 0 16 5 33 11 36 23 15 29 55 15 113 -13 55 -12 59 15
113 15 30 33 82 40 115 11 54 16 63 51 83 21 12 38 27 38 34 0 7 -14 39 -30
71 -21 41 -30 73 -30 106 0 46 27 150 39 150 3 0 24 -39 45 -86 52 -113 65
-121 167 -106 94 13 124 27 113 50 -4 9 -23 63 -42 119 -35 99 -37 128 -9 105
37 -31 185 -93 282 -118 101 -26 125 -28 295 -29 138 0 212 5 290 19 290 51
514 155 565 262 15 33 15 50 0 104 -4 11 6 16 40 18 101 6 178 53 225 135 41
71 40 125 -1 203 -93 174 -109 209 -109 235 0 15 -7 49 -16 74 -8 26 -21 106
-28 180 -8 89 -18 141 -29 158 -21 33 -109 75 -175 83 -29 4 -55 10 -58 15 -3
5 12 35 32 66 56 88 122 231 136 296 11 55 14 58 50 68 21 5 55 24 75 42 l36
32 16 -25 c9 -14 35 -45 58 -70 l41 -45 84 34 c111 45 334 161 433 226 172
112 311 254 373 379 l33 65 -103 103 c-111 111 -219 247 -268 340 -17 32 -35
58 -39 58 -5 0 -14 -14 -22 -32 -15 -37 -108 -169 -152 -217 -97 -103 -260
-204 -400 -247 -57 -18 -58 -18 -103 4 -54 26 -160 53 -180 45 -15 -6 -56
-109 -52 -132 2 -10 23 -19 65 -26 35 -6 65 -14 68 -17 9 -9 36 -121 30 -126
-11 -11 -130 19 -155 39 -69 54 -150 101 -224 130 -103 40 -269 77 -369 82
-75 4 -79 6 -93 33 -61 117 -170 118 -344 1 -25 -16 -60 -44 -78 -61 l-33 -31
44 85 c25 47 55 112 66 145 l22 60 44 -3 c84 -7 166 52 220 158 l25 50 -61 0
c-73 0 -112 20 -136 70 -14 29 -18 82 -24 295 -8 273 -27 443 -55 516 -65 164
-235 325 -458 434 -75 36 -76 38 -61 59 8 11 25 40 37 63 21 41 21 43 3 63
-31 34 -83 21 -167 -43 l-46 -36 -28 40 c-56 81 -118 113 -129 67z m82 -35
c19 -21 42 -50 51 -65 20 -34 22 -34 53 -7 75 67 162 99 175 65 7 -18 -20 -73
-54 -108 -14 -15 -24 -30 -21 -32 2 -2 39 -20 81 -39 198 -91 375 -243 441
-378 51 -103 66 -209 76 -541 12 -360 24 -391 155 -405 31 -3 56 -8 56 -10 0
-29 -79 -122 -122 -144 -48 -25 -129 -26 -150 -1 -44 52 -85 212 -95 377 -7
113 -23 154 -23 58 0 -152 34 -325 81 -414 l30 -56 -30 -79 c-37 -96 -113
-222 -177 -293 -74 -82 -187 -151 -274 -166 -27 -5 -30 -3 -21 12 5 10 19 27
31 38 38 35 110 143 147 222 20 43 38 80 39 82 2 1 13 -4 26 -13 33 -23 99
-20 138 7 64 42 104 161 81 238 -20 65 -94 96 -165 69 -25 -9 -26 -8 -26 30 0
22 4 40 8 40 19 0 73 59 87 95 15 39 15 39 -2 15 -53 -74 -119 -111 -213 -118
-138 -10 -329 80 -612 285 -154 113 -198 183 -206 331 -3 62 -8 90 -15 83 -5
-5 -8 -45 -5 -93 5 -92 28 -157 79 -220 l30 -38 -68 0 c-37 0 -88 5 -113 11
-55 12 -181 69 -175 79 2 3 -19 29 -47 56 -114 111 -186 269 -188 412 0 25 -5
42 -11 42 -19 0 -4 -139 24 -219 34 -96 79 -170 150 -242 31 -32 57 -61 57
-64 0 -8 -71 -6 -140 6 -182 29 -278 155 -316 414 -5 36 -9 44 -13 28 -3 -12
-36 -48 -72 -81 -111 -102 -204 -253 -259 -421 -39 -119 -52 -224 -48 -369 3
-117 2 -121 -14 -99 -23 30 -63 114 -85 179 -28 83 -25 336 5 441 12 42 22 79
22 82 0 3 -15 5 -33 5 -45 0 -57 15 -57 75 0 90 97 217 240 318 l21 15 -20 60
c-26 76 -26 94 -2 123 l19 24 24 -21 c53 -48 87 -39 262 68 299 185 513 261
731 260 139 0 255 -32 379 -104 27 -16 50 -27 52 -25 3 2 -7 28 -21 58 -46 99
-23 132 42 62z m-1178 -769 c26 -143 104 -259 206 -308 64 -30 168 -50 228
-43 31 3 55 -2 92 -19 77 -36 161 -54 250 -54 l81 0 85 -63 c181 -136 398
-254 509 -278 32 -7 86 -9 132 -6 l78 6 0 -40 c0 -26 -7 -50 -20 -66 -11 -14
-20 -30 -20 -34 0 -18 16 -8 32 20 34 61 134 79 181 33 30 -30 33 -97 7 -164
-38 -101 -111 -135 -189 -87 -18 11 -35 19 -36 17 -2 -2 -14 -31 -28 -65 -37
-91 -130 -228 -206 -303 -87 -87 -161 -140 -268 -194 -171 -86 -299 -111 -520
-104 -121 5 -164 10 -238 32 -327 97 -571 331 -668 641 -124 396 -42 800 216
1072 38 40 73 73 77 73 3 0 12 -30 19 -66z m3887 -760 c54 -92 189 -259 276
-338 l72 -68 -34 -65 c-72 -135 -182 -243 -378 -373 -106 -70 -346 -194 -439
-226 l-52 -18 -26 24 c-14 13 -39 45 -55 71 -26 39 -29 51 -20 73 15 40 12 67
-9 109 l-19 37 34 16 c107 51 121 184 29 291 l-34 40 57 18 c133 41 281 134
378 238 61 64 164 208 164 228 0 24 21 2 56 -57z m-761 -396 c114 -42 200
-159 180 -247 -9 -44 -48 -86 -95 -105 -22 -9 -40 -18 -40 -20 0 -3 12 -22 26
-43 20 -29 25 -46 21 -75 -7 -56 -44 -108 -91 -129 -91 -41 -256 -12 -337 59
l-43 39 28 46 c15 26 32 47 38 47 6 0 30 -18 53 -39 69 -63 162 -67 195 -8 25
44 0 75 -90 113 -40 17 -76 36 -78 43 -2 6 2 26 9 42 14 34 15 34 152 8 80
-16 100 -8 105 40 6 63 -50 112 -150 132 -66 13 -69 20 -38 88 20 42 21 43 58
37 20 -4 64 -16 97 -28z m-650 -40 c138 -22 319 -92 400 -153 l32 -25 -19 -40
c-28 -57 -21 -90 22 -106 88 -31 95 -35 80 -45 -12 -8 -10 -9 6 -5 13 4 27 -1
39 -14 17 -19 17 -21 1 -39 -22 -24 -69 -33 -103 -20 -15 5 -46 28 -70 49 -23
22 -47 40 -52 40 -5 0 -18 -11 -29 -25 -23 -29 -32 -31 -32 -9 0 10 -16 37
-36 60 -19 24 -32 49 -29 54 4 6 2 9 -3 8 -5 -2 -29 15 -54 37 -24 22 -55 46
-68 54 -61 36 -169 89 -212 106 -31 11 -50 25 -54 39 -17 62 -22 57 53 51 37
-4 95 -11 128 -17z m-375 -81 c0 -46 -26 -137 -40 -137 -4 0 -37 14 -74 30
-74 34 -73 30 -13 103 36 43 43 47 83 47 l44 0 0 -43z m382 -80 c98 -51 170
-115 221 -192 34 -52 38 -65 33 -102 -4 -29 -1 -45 9 -53 32 -26 8 -159 -46
-261 -17 -32 -59 -89 -93 -127 -103 -114 -166 -235 -202 -387 l-14 -60 5 110
c3 61 12 171 20 245 18 160 19 309 4 382 -15 73 -62 158 -120 218 l-49 51 20
72 c11 39 20 95 20 123 0 28 2 53 6 56 8 8 99 -28 186 -75z m643 29 c17 -25
17 -75 1 -79 -9 -2 -13 8 -30 76 -8 34 8 36 29 3z m-1447 -51 c-6 -14 -20 -25
-30 -25 -16 0 -15 4 9 25 35 30 35 30 21 0z m339 -53 c8 -9 12 -11 8 -4 -3 6
-2 12 4 12 21 0 21 -22 0 -60 -23 -40 -48 -51 -67 -27 -6 6 -33 21 -60 31
l-50 20 16 25 c37 61 39 62 90 40 25 -11 52 -27 59 -37z m-325 -7 c61 -9 199
-58 251 -88 55 -33 183 -149 215 -195 69 -102 92 -181 92 -320 0 -79 3 -103
13 -99 9 3 12 34 11 113 -1 105 -9 152 -40 222 -8 18 -12 38 -8 45 4 6 3 9 -1
4 -5 -4 -21 11 -36 34 l-27 41 34 50 c19 27 34 54 34 60 0 5 6 8 13 5 6 -2 11
-10 9 -16 -1 -7 2 -10 8 -6 13 8 81 -66 75 -82 -2 -7 1 -12 6 -10 6 1 23 -27
38 -63 24 -61 26 -74 25 -220 0 -85 -6 -197 -13 -249 -26 -203 -31 -294 -21
-358 10 -58 9 -66 -12 -93 -20 -27 -22 -41 -20 -123 2 -101 22 -239 44 -302
13 -39 14 -40 57 -37 50 3 137 37 145 57 2 7 -2 37 -10 67 -42 147 -55 202
-52 221 3 18 7 16 48 -18 25 -21 44 -42 42 -47 -1 -5 2 -7 8 -3 5 3 20 -1 32
-9 12 -9 29 -16 38 -16 22 1 63 39 89 83 13 21 25 36 27 34 2 -2 12 -44 23
-93 10 -49 26 -119 36 -156 16 -57 17 -72 6 -109 -10 -32 -15 -39 -23 -28 -7
10 -8 9 -3 -7 4 -17 -7 -33 -51 -73 -84 -77 -187 -122 -354 -156 -95 -19 -394
-32 -404 -17 -3 6 1 8 11 6 15 -4 18 2 20 30 1 26 -11 60 -42 118 -69 129
-107 163 -212 188 -29 6 -53 16 -53 21 0 5 -12 9 -27 10 -16 0 -22 3 -16 6 9
3 11 17 7 42 -7 43 14 94 45 110 24 14 80 16 166 6 127 -13 148 -13 178 8 18
12 26 25 23 34 -5 11 -2 13 9 9 9 -3 13 -2 10 4 -3 5 1 22 9 37 28 55 59 234
59 343 0 113 -21 258 -48 329 -22 60 -75 169 -89 184 -6 7 -23 28 -37 47 -58
78 -178 178 -198 165 -5 -3 -13 0 -17 6 -5 8 -3 9 7 4 10 -5 11 -5 4 3 -5 6
-57 34 -114 63 -74 37 -117 53 -150 54 -62 3 -108 15 -122 31 -6 8 -16 14 -21
14 -5 0 -16 6 -23 14 -12 12 -9 15 23 21 54 9 103 27 132 46 24 16 34 17 122
4z m-352 -99 c0 -2 -8 -10 -17 -17 -16 -13 -17 -12 -4 4 13 16 21 21 21 13z
m-70 -60 c0 -2 -7 -7 -16 -10 -8 -3 -12 -2 -9 4 6 10 25 14 25 6z m25 -16 c-3
-5 -12 -10 -18 -10 -7 0 -6 4 3 10 19 12 23 12 15 0z m-1450 -59 c48 -32 96
-114 78 -132 -9 -9 -22 -1 -57 35 -25 25 -50 46 -55 46 -5 0 -16 3 -25 6 -9 3
-16 2 -16 -4 0 -5 11 -13 24 -16 13 -3 40 -24 60 -47 31 -33 37 -46 34 -77 -4
-54 -28 -52 -86 7 -26 28 -54 51 -60 51 -21 0 -13 -15 18 -33 44 -26 72 -71
68 -109 -4 -41 -29 -48 -48 -13 -15 29 -68 71 -77 62 -3 -3 11 -20 30 -37 36
-31 64 -91 52 -110 -8 -12 -71 13 -101 40 -27 27 -31 26 -38 -14 -8 -44 -55
-94 -96 -102 -22 -5 -29 -11 -25 -22 3 -8 -2 -49 -11 -91 -9 -42 -17 -129 -17
-193 l-2 -118 -48 -20 c-26 -12 -76 -23 -111 -27 -54 -5 -72 -2 -110 17 -60
28 -76 60 -76 147 1 109 65 269 163 406 71 100 265 308 316 339 84 52 148 55
216 9z m3125 -143 c42 -6 70 -15 70 -22 0 -47 -79 -226 -148 -335 -68 -107
-95 -226 -90 -399 3 -97 1 -111 -12 -106 -8 3 -60 13 -115 22 -55 9 -104 22
-110 28 -25 29 -130 45 -152 23 -12 -12 -10 6 13 119 22 106 100 283 116 266
3 -3 9 0 14 7 4 8 3 10 -4 5 -26 -16 -9 10 46 71 31 36 67 79 80 96 13 18 28
31 33 29 6 -1 8 2 4 7 -3 6 2 25 12 43 28 54 43 100 49 159 l7 56 58 -29 c33
-17 90 -34 129 -40z m-2144 27 c-21 -32 -93 -83 -134 -95 -97 -26 -222 2 -242
55 -24 62 -29 60 190 60 197 0 199 0 186 -20z m1084 15 c0 -5 -4 -10 -10 -10
-5 0 -10 5 -10 10 0 6 5 10 10 10 6 0 10 -4 10 -10z m-220 -30 c-8 -5 -19 -10
-25 -10 -5 0 -3 5 5 10 8 5 20 10 25 10 6 0 3 -5 -5 -10z m74 -48 c2 -4 -4 -8
-14 -8 -10 0 -16 4 -14 8 3 4 9 8 14 8 5 0 11 -4 14 -8z m117 -119 c13 -17 13
-17 -6 -3 -11 8 -22 16 -24 17 -2 2 0 3 6 3 6 0 17 -8 24 -17z m-567 -41 c30
-14 54 -40 110 -121 l71 -104 110 -38 c126 -44 248 -102 324 -155 29 -19 55
-33 57 -31 6 5 -60 58 -94 76 -13 7 -22 17 -19 24 7 23 90 57 137 57 l47 0 36
-77 c50 -109 71 -187 71 -268 0 -122 -48 -175 -159 -175 -189 0 -417 148 -562
363 l-34 51 -67 1 c-51 0 -76 5 -103 23 -43 26 -128 30 -171 8 -32 -17 -38
-12 -38 26 0 35 48 68 98 68 20 0 31 4 27 10 -10 15 -46 12 -94 -10 -33 -15
-47 -18 -57 -9 -20 16 -17 34 9 65 20 22 32 27 70 27 26 0 47 4 47 9 0 14 -94
9 -116 -7 -43 -29 -47 23 -6 65 20 19 44 31 75 35 26 4 44 11 41 17 -3 5 -13
7 -22 4 -58 -15 -72 -16 -72 -3 0 22 45 58 91 72 62 19 147 18 193 -3z m691
-42 c3 -5 2 -10 -4 -10 -5 0 -13 5 -16 10 -3 6 -2 10 4 10 5 0 13 -4 16 -10z
m-1960 -162 c56 -9 196 -13 468 -12 274 1 387 -1 387 -9 0 -8 3 -8 10 -1 6 6
23 9 39 6 26 -4 28 -7 25 -43 -1 -21 2 -42 8 -45 7 -5 8 -2 3 7 -7 12 -6 12 7
1 9 -7 14 -21 11 -32 -3 -10 2 -29 11 -42 9 -12 16 -37 16 -55 l0 -33 -364 0
c-201 0 -423 5 -493 11 -155 12 -313 36 -328 49 -7 6 -15 7 -18 3 -8 -7 31
108 58 175 16 39 20 42 49 37 17 -2 67 -10 111 -17z m2970 -69 c87 -32 111
-70 114 -180 1 -36 6 -91 10 -123 l8 -57 -41 -29 c-56 -42 -131 -68 -207 -72
l-64 -3 -8 60 c-16 118 1 321 35 408 11 27 13 28 57 22 25 -4 68 -15 96 -26z
m-858 -21 c-3 -8 -6 -5 -6 6 -1 11 2 17 5 13 3 -3 4 -12 1 -19z m-9 -82 c-1
-14 -5 -23 -9 -20 -7 4 0 44 7 44 2 0 3 -11 2 -24z m392 -246 c19 -10 19 -13
5 -47 -33 -79 -53 -84 -142 -42 -47 23 -47 30 2 83 24 26 31 28 71 22 25 -3
54 -10 64 -16z m149 -44 c51 -8 98 -19 103 -24 12 -12 -25 -80 -67 -125 -36
-38 -56 -30 -179 75 -12 9 23 88 38 88 6 0 53 -6 105 -14z m-1064 -29 c4 5 5
2 1 -5 -8 -13 -39 -2 -52 19 -3 6 5 4 18 -5 14 -9 28 -13 33 -9z m-124 -20
c-10 -9 -11 -8 -5 6 3 10 9 15 12 12 3 -3 0 -11 -7 -18z m956 -35 c36 -8 37
-9 49 -72 7 -36 22 -94 33 -130 12 -36 21 -73 21 -82 0 -21 -45 -46 -105 -57
l-45 -8 -11 41 c-5 22 -15 57 -20 76 -5 19 -12 88 -16 154 l-6 118 31 -16 c17
-9 48 -20 69 -24z m-692 -32 c3 -5 1 -10 -4 -10 -6 0 -11 5 -11 10 0 6 2 10 4
10 3 0 8 -4 11 -10z m-258 -32 c-3 -8 -6 -5 -6 6 -1 11 2 17 5 13 3 -3 4 -12
1 -19z m1801 -263 c-6 -96 -69 -169 -174 -201 -77 -23 -106 -19 -128 19 -56
94 -78 142 -101 213 -26 83 -31 109 -16 100 17 -11 137 16 184 42 27 14 62 45
79 69 l31 43 64 -113 c62 -108 64 -114 61 -172z m-1455 258 c-7 -2 -19 -2 -25
0 -7 3 -2 5 12 5 14 0 19 -2 13 -5z m214 -19 c-3 -3 -12 -4 -19 -1 -8 3 -5 6
6 6 11 1 17 -2 13 -5z m870 -332 c18 -37 46 -92 63 -122 53 -98 34 -152 -77
-224 -172 -110 -449 -176 -741 -177 -158 0 -249 13 -382 57 -104 35 -219 101
-227 132 -6 27 1 189 9 197 3 4 34 -5 68 -19 139 -57 253 -78 442 -83 188 -6
283 3 428 38 166 41 310 133 355 228 11 22 22 41 25 40 3 0 20 -30 37 -67z
m-1187 -152 c13 -9 13 -10 0 -10 -8 0 -22 5 -30 10 -13 9 -13 10 0 10 8 0 22
-5 30 -10z m-2494 -292 c27 -85 53 -129 108 -188 105 -111 126 -204 82 -374
-36 -139 -81 -232 -130 -268 -48 -35 -70 -37 -61 -5 12 42 57 127 82 157 14
17 20 30 15 30 -18 0 -64 -63 -92 -124 l-27 -58 -13 33 c-24 57 -94 123 -167
157 -89 41 -196 59 -263 46 -27 -6 -50 -7 -50 -3 0 12 95 269 128 347 81 190
201 302 324 302 l46 0 18 -52z m-269 -633 c89 -29 161 -77 198 -134 46 -68 44
-87 -31 -294 -37 -103 -71 -187 -75 -187 -14 0 -160 163 -180 201 -44 86 -140
159 -211 159 -16 0 -28 3 -28 7 0 4 15 61 33 127 29 110 34 120 62 132 49 21
145 17 232 -11z m2193 -31 c0 -8 -4 -13 -9 -10 -13 9 -21 -19 -9 -35 8 -11 9
-10 4 4 -3 10 0 17 8 17 17 0 28 -67 15 -91 -11 -22 -40 -14 -32 9 4 13 3 14
-5 4 -5 -8 -12 -13 -16 -13 -3 1 -6 -1 -6 -4 0 -28 1 -30 9 -16 6 8 11 10 15
3 4 -7 -9 -16 -31 -22 -143 -42 -261 -62 -249 -41 4 6 2 9 -7 5 -17 -6 -27 23
-27 81 0 87 -2 86 129 84 67 -1 128 3 144 9 15 6 27 9 27 6 0 -3 7 2 16 10 19
20 24 20 24 0z m18 -270 c15 -19 35 -37 45 -40 17 -5 17 -7 2 -24 -12 -14 -13
-20 -4 -26 7 -4 10 -3 6 3 -4 6 0 13 8 17 26 10 25 -10 -3 -36 -15 -14 -55
-42 -90 -63 -51 -31 -71 -38 -108 -36 -50 1 -67 8 -59 21 3 4 -3 7 -13 6 -9 0
-16 5 -14 12 1 8 -2 11 -8 7 -24 -15 -95 95 -106 163 -6 38 -5 39 20 35 30 -6
139 12 208 34 26 8 52 12 58 8 5 -3 10 0 11 7 0 7 5 -2 11 -21 5 -18 21 -49
36 -67z m-2699 37 c33 -18 34 -19 13 -30 -12 -6 -72 -11 -144 -11 -91 0 -119
-3 -108 -11 12 -9 12 -10 -4 -5 -10 4 -30 -1 -43 -10 -14 -8 -27 -14 -29 -11
-10 10 43 61 80 78 56 26 187 25 235 0z m-192 -77 c-3 -3 -12 -4 -19 -1 -8 3
-5 6 6 6 11 1 17 -2 13 -5z m58 -14 c13 -6 15 -9 5 -9 -8 0 -22 4 -30 9 -18
12 -2 12 25 0z m100 -48 c-3 -3 -11 0 -18 7 -9 10 -8 11 6 5 10 -3 15 -9 12
-12z m3044 -86 c34 -19 78 -90 101 -164 27 -88 26 -137 -4 -167 -25 -25 -113
-73 -159 -86 -27 -8 -29 -6 -22 14 13 43 17 173 6 213 -13 49 -54 93 -93 101
-15 3 -28 7 -28 10 0 15 50 68 75 79 38 17 93 17 124 0z m-141 -122 c36 -23
52 -74 52 -162 0 -127 -4 -132 -135 -196 -197 -95 -302 -121 -468 -114 -105 4
-147 17 -194 61 -33 30 -29 47 10 47 60 0 186 38 270 82 99 52 250 164 332
248 64 65 79 69 133 34z m237 -424 c-3 -5 -16 -10 -28 -9 -20 1 -20 2 3 9 14
4 26 8 28 9 2 1 0 -3 -3 -9z m158 3 c-7 -2 -19 -2 -25 0 -7 3 -2 5 12 5 14 0
19 -2 13 -5z m-263 -33 c-8 -5 -19 -10 -25 -10 -5 0 -3 5 5 10 8 5 20 10 25
10 6 0 3 -5 -5 -10z m-53 -23 c0 -7 -9 -13 -19 -13 -18 0 -18 1 -2 13 10 7 18
13 19 13 1 0 2 -6 2 -13z m-7 -57 c6 -11 8 -20 6 -20 -3 0 -10 9 -16 20 -6 11
-8 20 -6 20 3 0 10 -9 16 -20z m267 -2 c-3 -8 -6 -5 -6 6 -1 11 2 17 5 13 3
-3 4 -12 1 -19z m46 -3 c-3 -9 -8 -14 -10 -11 -3 3 -2 9 2 15 9 16 15 13 8 -4z
m-257 -67 l29 -33 -32 29 c-31 28 -38 36 -30 36 2 0 16 -15 33 -32z m234 18
c0 -2 -7 -9 -15 -16 -13 -11 -14 -10 -9 4 5 14 24 23 24 12z m-41 -39 c-2 -1
-13 -9 -24 -17 -19 -14 -19 -14 -6 3 7 9 18 17 24 17 6 0 8 -1 6 -3z m-92 -33
c-3 -3 -12 -4 -19 -1 -8 3 -5 6 6 6 11 1 17 -2 13 -5z"/>
<path d="M2640 6023 c0 -16 9 -69 19 -118 21 -102 70 -208 127 -274 41 -47
141 -117 152 -106 4 4 -2 12 -12 19 -144 85 -241 247 -261 439 -7 65 -25 94
-25 40z"/>
<path d="M1893 4900 c-43 -29 -69 -68 -53 -84 8 -8 16 -4 32 17 25 35 73 60
98 52 11 -3 35 -25 55 -47 26 -31 38 -39 46 -31 12 12 -10 51 -49 86 -32 29
-91 32 -129 7z"/>
<path d="M2918 4850 c-64 -19 -131 -100 -83 -100 8 0 15 4 15 9 0 17 77 61
106 61 28 0 56 -20 98 -70 14 -18 20 -20 26 -9 11 17 0 36 -42 75 -36 35 -79
47 -120 34z"/>
<path d="M2090 4420 c0 -24 52 -144 80 -185 76 -111 168 -166 290 -173 105 -6
176 25 258 112 51 55 130 181 120 191 -2 2 -44 -2 -93 -10 -117 -19 -341 -19
-421 0 -34 8 -96 28 -138 45 -83 32 -96 35 -96 20z m105 -41 c42 -17 107 -37
143 -45 87 -18 252 -18 376 1 55 8 101 14 102 12 2 -1 -11 -26 -28 -55 -46
-81 -122 -158 -186 -189 -121 -59 -272 -24 -376 87 -54 57 -136 220 -112 220
3 0 39 -14 81 -31z"/>
<path d="M4075 2634 c-15 -159 6 -424 33 -424 13 0 37 20 25 20 -24 0 -33 78
-33 278 0 206 -12 267 -25 126z"/>
<path d="M4391 2469 c-29 -10 -58 -16 -64 -12 -5 3 -7 1 -3 -5 3 -6 2 -13 -3
-16 -12 -8 8 -86 25 -93 16 -6 133 24 151 39 10 8 12 23 7 52 -3 23 -8 42 -9
44 -10 11 -58 6 -104 -9z m92 -36 c3 -16 3 -31 1 -34 -5 -8 -125 -42 -130 -37
-2 3 -7 18 -10 35 -6 29 -4 32 37 46 70 25 96 22 102 -10z"/>
<path d="M1801 3344 c0 -11 3 -14 6 -6 3 7 2 16 -1 19 -3 4 -6 -2 -5 -13z"/>
<path d="M2885 3211 c-3 -5 0 -13 6 -17 8 -4 9 -3 5 4 -4 7 -2 12 4 12 6 0 15
-10 20 -22 5 -14 9 -17 9 -7 1 27 -31 50 -44 30z"/>
<path d="M2058 3183 c7 -3 16 -2 19 1 4 3 -2 6 -13 5 -11 0 -14 -3 -6 -6z"/>
<path d="M2791 1264 c0 -11 3 -14 6 -6 3 7 2 16 -1 19 -3 4 -6 -2 -5 -13z"/>
<path d="M2782 1210 c0 -19 2 -27 5 -17 2 9 2 25 0 35 -3 9 -5 1 -5 -18z"/>
<path d="M3081 1224 c0 -11 3 -14 6 -6 3 7 2 16 -1 19 -3 4 -6 -2 -5 -13z"/>
<path d="M2760 1182 c0 -18 5 -32 10 -32 6 0 8 11 4 28 -10 39 -14 40 -14 4z"/>
<path d="M2988 1183 c6 -2 18 -2 25 0 6 3 1 5 -13 5 -14 0 -19 -2 -12 -5z"/>
<path d="M2888 1173 c7 -3 16 -2 19 1 4 3 -2 6 -13 5 -11 0 -14 -3 -6 -6z"/>
<path d="M2938 1173 c7 -3 16 -2 19 1 4 3 -2 6 -13 5 -11 0 -14 -3 -6 -6z"/>
<path d="M2988 1163 c7 -3 16 -2 19 1 4 3 -2 6 -13 5 -11 0 -14 -3 -6 -6z"/>
<path d="M2888 1143 c7 -3 16 -2 19 1 4 3 -2 6 -13 5 -11 0 -14 -3 -6 -6z"/>
<path d="M3041 1103 c7 -12 15 -20 18 -17 3 2 -3 12 -13 22 -17 16 -18 16 -5
-5z"/>
<path d="M2965 1090 c-27 -7 -28 -8 -5 -8 14 0 34 3 45 8 25 11 2 11 -40 0z"/>
<path d="M2868 1073 c12 -2 32 -2 45 0 12 2 2 4 -23 4 -25 0 -35 -2 -22 -4z"/>
<path d="M3036 1067 c3 -10 9 -15 12 -12 3 3 0 11 -7 18 -10 9 -11 8 -5 -6z"/>
<path d="M2898 1053 c12 -2 32 -2 45 0 12 2 2 4 -23 4 -25 0 -35 -2 -22 -4z"/>
<path d="M2791 1020 c-1 -21 16 -46 26 -37 4 5 3 11 -3 15 -6 4 -14 14 -17 22
-5 13 -5 13 -6 0z"/>
<path d="M3129 983 c-13 -16 -12 -17 4 -4 16 13 21 21 13 21 -2 0 -10 -8 -17
-17z"/>
<path d="M2832 927 c11 -15 23 -26 26 -23 2 3 -1 12 -8 21 -7 9 -10 19 -6 22
4 4 11 2 15 -6 7 -10 9 -10 14 1 4 11 -4 14 -28 14 l-33 -1 20 -28z"/>
<path d="M3117 939 c-7 -28 -6 -31 10 -14 6 6 8 18 3 24 -5 9 -9 5 -13 -10z"/>
<path d="M3070 910 c0 -5 4 -10 9 -10 6 0 13 5 16 10 3 6 -1 10 -9 10 -9 0
-16 -4 -16 -10z"/>
<path d="M2995 860 c-13 -6 -15 -9 -5 -9 8 0 22 4 30 9 18 12 2 12 -25 0z"/>
<path d="M6726 5234 c-141 -31 -160 -41 -164 -81 -5 -48 31 -67 108 -60 33 3
60 3 60 0 0 -4 -223 -305 -275 -371 -9 -11 -25 -7 -82 23 -87 46 -148 55 -182
28 -23 -19 -23 -20 -6 -56 38 -81 298 -292 402 -326 115 -38 137 40 44 160
l-49 63 19 26 c10 14 77 99 149 190 208 262 247 329 220 380 -14 25 -68 50
-107 49 -15 0 -77 -12 -137 -25z m197 -5 c29 -16 37 -28 37 -61 0 -40 -63
-129 -302 -430 -49 -61 -88 -116 -88 -122 0 -6 23 -42 50 -80 48 -66 55 -82
50 -116 -3 -22 -18 -28 -54 -20 -138 31 -466 314 -419 361 22 22 84 12 162
-27 42 -22 79 -40 82 -42 11 -5 300 374 315 413 4 11 -9 12 -75 8 -80 -6 -111
3 -111 31 1 28 26 42 127 67 118 30 192 35 226 18z"/>
<path d="M5950 4081 c-60 -20 -129 -63 -167 -104 -50 -54 -106 -161 -127 -244
-53 -203 37 -388 211 -439 83 -24 214 -16 273 16 79 44 112 121 72 171 -16 19
-27 22 -68 19 -27 -2 -86 -4 -131 -4 -80 -1 -84 0 -114 31 -25 24 -33 42 -37
81 -8 90 41 192 109 227 40 21 132 18 209 -6 38 -13 77 -19 91 -16 31 8 59 55
59 100 0 50 -37 90 -126 133 -63 32 -87 38 -152 40 -42 2 -88 0 -102 -5z m230
-39 c30 -12 72 -37 93 -56 31 -30 37 -41 37 -77 0 -78 -39 -95 -140 -59 -102
36 -210 21 -262 -37 -27 -29 -56 -103 -63 -159 -6 -40 -3 -61 13 -98 35 -77
119 -102 255 -75 51 11 60 10 77 -6 46 -41 6 -120 -80 -158 -59 -27 -185 -27
-250 -2 -123 49 -189 141 -197 279 -6 97 10 165 64 269 42 80 132 168 195 191
61 22 187 16 258 -12z"/>
</g>
</svg>
